HIERARCHY
ROOT Hips
{
	OFFSET -0.031289 103.266464 0.443827
	CHANNELS 6 Xposition Yposition Zposition Xrotation Yrotation Zrotation 
	JOINT Spine
	{
		OFFSET -0.002448 12.777534 0.315252
		CHANNELS 3 Xrotation Yrotation Zrotation
		JOINT Spine1
		{
			OFFSET -0.002040 5.816851 0.032640
			CHANNELS 3 Xrotation Yrotation Zrotation
			JOINT Spine1_split
			{
				OFFSET -0.002040 5.816851 0.032640
				CHANNELS 3 Xrotation Yrotation Zrotation
				JOINT Spine2
				{
					OFFSET -0.002040 5.816851 0.032640
					CHANNELS 3 Xrotation Yrotation Zrotation
					JOINT Neck
					{
						OFFSET -0.003672 21.199554 -0.826883
						CHANNELS 3 Xrotation Yrotation Zrotation
						JOINT Head
						{
							OFFSET -0.000000 20.442154 4.834770
							CHANNELS 3 Xrotation Yrotation Zrotation
							JOINT HeadTop_End
							{
								OFFSET 0.000000 34.668427 4.968426
								CHANNELS 3 Xrotation Yrotation Zrotation
								End Site
								{
									OFFSET 0.000000 0.000000 0.000000
								}
							}
						}
					}
					JOINT LeftShoulder
					{
						OFFSET 3.288174 8.794213 -1.372251
						CHANNELS 3 Xrotation Yrotation Zrotation
						JOINT LeftShoulder_split
						{
							OFFSET 3.288174 8.794213 -1.372251
							CHANNELS 3 Xrotation Yrotation Zrotation
							JOINT LeftArm
							{
								OFFSET 11.953302 -2.279037 -0.146175
								CHANNELS 3 Xrotation Yrotation Zrotation
								JOINT LeftForeArm
								{
									OFFSET 18.448874 0.000061 -0.000024
									CHANNELS 3 Xrotation Yrotation Zrotation
									JOINT LeftHand
									{
										OFFSET 29.527794 0.000092 -0.000021
										CHANNELS 3 Xrotation Yrotation Zrotation
										JOINT LeftHandThumb1
										{
											OFFSET 10.739838 -2.369766 9.225297
											CHANNELS 3 Xrotation Yrotation Zrotation
											JOINT LeftHandThumb2
											{
												OFFSET 4.926178 -2.844101 2.844107
												CHANNELS 3 Xrotation Yrotation Zrotation
												JOINT LeftHandThumb3
												{
													OFFSET 4.614899 -2.664444 2.664389
													CHANNELS 3 Xrotation Yrotation Zrotation
													JOINT LeftHandThumb4
													{
														OFFSET 4.432472 -2.559052 2.559026
														CHANNELS 3 Xrotation Yrotation Zrotation
														End Site
														{
															OFFSET 0.000000 0.000000 0.000000
														}
													}
												}
											}
										}
										JOINT LeftHandIndex1
										{
											OFFSET 26.467659 0.187592 6.405249
											CHANNELS 3 Xrotation Yrotation Zrotation
											JOINT LeftHandIndex2
											{
												OFFSET 8.792877 0.000046 -0.000014
												CHANNELS 3 Xrotation Yrotation Zrotation
												JOINT LeftHandIndex3
												{
													OFFSET 10.075157 0.000031 -0.000014
													CHANNELS 3 Xrotation Yrotation Zrotation
													End Site
													{
														OFFSET 0.000000 0.000000 0.000000
													}
												}
											}
										}
										JOINT LeftHandMiddle1
										{
											OFFSET 25.764420 0.000076 -0.000063
											CHANNELS 3 Xrotation Yrotation Zrotation
											JOINT LeftHandMiddle2
											{
												OFFSET 9.368942 -0.468658 -0.500905
												CHANNELS 3 Xrotation Yrotation Zrotation
												JOINT LeftHandMiddle3
												{
													OFFSET 10.758461 -0.538101 0.000023
													CHANNELS 3 Xrotation Yrotation Zrotation
													End Site
													{
														OFFSET 0.000000 0.000000 0.000000
													}
												}
											}
										}
										JOINT LeftHandRing1
										{
											OFFSET 24.660912 0.144745 -6.225863
											CHANNELS 3 Xrotation Yrotation Zrotation
											JOINT LeftHandRing2
											{
												OFFSET 9.393806 0.000046 -0.000017
												CHANNELS 3 Xrotation Yrotation Zrotation
												JOINT LeftHandRing3
												{
													OFFSET 9.928528 -0.000015 -0.000007
													CHANNELS 3 Xrotation Yrotation Zrotation
													End Site
													{
														OFFSET 0.000000 0.000000 0.000000
													}
												}
											}
										}
										JOINT LeftHandPinky1
										{
											OFFSET 23.655312 0.125748 -12.815530
											CHANNELS 3 Xrotation Yrotation Zrotation
											JOINT LeftHandPinky2
											{
												OFFSET 8.425102 0.000031 -0.000015
												CHANNELS 3 Xrotation Yrotation Zrotation
												JOINT LeftHandPinky3
												{
													OFFSET 8.146988 0.000015 -0.000021
													CHANNELS 3 Xrotation Yrotation Zrotation
													End Site
													{
														OFFSET 0.000000 0.000000 0.000000
													}
												}
											}
										}
									}
								}
							}
						}
					}
					JOINT RightShoulder
					{
						OFFSET -3.249397 8.794213 -1.372251
						CHANNELS 3 Xrotation Yrotation Zrotation
						JOINT RightShoulder_split
						{
							OFFSET -3.249397 8.794213 -1.372251
							CHANNELS 3 Xrotation Yrotation Zrotation
							JOINT RightArm
							{
								OFFSET -11.953302 -2.279037 -0.146175
								CHANNELS 3 Xrotation Yrotation Zrotation
								JOINT RightForeArm
								{
									OFFSET -18.448874 0.000061 -0.000024
									CHANNELS 3 Xrotation Yrotation Zrotation
									JOINT RightHand
									{
										OFFSET -29.527794 0.000092 -0.000021
										CHANNELS 3 Xrotation Yrotation Zrotation
										JOINT RightHandThumb1
										{
											OFFSET -10.739838 -2.369766 9.225297
											CHANNELS 3 Xrotation Yrotation Zrotation
											JOINT RightHandThumb2
											{
												OFFSET -4.926178 -2.844101 2.844107
												CHANNELS 3 Xrotation Yrotation Zrotation
												JOINT RightHandThumb3
												{
													OFFSET -4.614899 -2.664444 2.664389
													CHANNELS 3 Xrotation Yrotation Zrotation
													JOINT RightHandThumb4
													{
														OFFSET -4.432472 -2.559052 2.559026
														CHANNELS 3 Xrotation Yrotation Zrotation
														End Site
														{
															OFFSET 0.000000 0.000000 0.000000
														}
													}
												}
											}
										}
										JOINT RightHandIndex1
										{
											OFFSET -26.467659 0.187592 6.405249
											CHANNELS 3 Xrotation Yrotation Zrotation
											JOINT RightHandIndex2
											{
												OFFSET -8.792877 0.000046 -0.000014
												CHANNELS 3 Xrotation Yrotation Zrotation
												JOINT RightHandIndex3
												{
													OFFSET -10.075157 0.000031 -0.000014
													CHANNELS 3 Xrotation Yrotation Zrotation
													End Site
													{
														OFFSET 0.000000 0.000000 0.000000
													}
												}
											}
										}
										JOINT RightHandMiddle1
										{
											OFFSET -25.764420 0.000076 -0.000063
											CHANNELS 3 Xrotation Yrotation Zrotation
											JOINT RightHandMiddle2
											{
												OFFSET -9.368942 -0.468658 -0.500905
												CHANNELS 3 Xrotation Yrotation Zrotation
												JOINT RightHandMiddle3
												{
													OFFSET -10.758461 -0.538101 0.000023
													CHANNELS 3 Xrotation Yrotation Zrotation
													End Site
													{
														OFFSET 0.000000 0.000000 0.000000
													}
												}
											}
										}
										JOINT RightHandRing1
										{
											OFFSET -24.660912 0.144745 -6.225863
											CHANNELS 3 Xrotation Yrotation Zrotation
											JOINT RightHandRing2
											{
												OFFSET -9.393806 0.000046 -0.000017
												CHANNELS 3 Xrotation Yrotation Zrotation
												JOINT RightHandRing3
												{
													OFFSET -9.928528 -0.000015 -0.000007
													CHANNELS 3 Xrotation Yrotation Zrotation
													End Site
													{
														OFFSET 0.000000 0.000000 0.000000
													}
												}
											}
										}
										JOINT RightHandPinky1
										{
											OFFSET -23.655312 0.125748 -12.815530
											CHANNELS 3 Xrotation Yrotation Zrotation
											JOINT RightHandPinky2
											{
												OFFSET -8.425102 0.000031 -0.000015
												CHANNELS 3 Xrotation Yrotation Zrotation
												JOINT RightHandPinky3
												{
													OFFSET -8.146980 0.000015 -0.000021
													CHANNELS 3 Xrotation Yrotation Zrotation
													End Site
													{
														OFFSET 0.000000 0.000000 0.000000
													}
												}
											}
										}
									}
								}
							}
						}
					}
				}
			}
		}
	}
	JOINT LeftUpLeg
	{
		OFFSET 11.394079 -6.187805 -0.413817
		CHANNELS 3 Xrotation Yrotation Zrotation
		JOINT LeftLeg
		{
			OFFSET 0.435522 -32.302582 3.732836
			CHANNELS 3 Xrotation Yrotation Zrotation
			JOINT LeftFoot
			{
				OFFSET -0.422448 -48.265030 -6.423308
				CHANNELS 3 Xrotation Yrotation Zrotation
				JOINT LeftToeBase
				{
					OFFSET 4.230914 -16.068172 23.438400
					CHANNELS 3 Xrotation Yrotation Zrotation
					JOINT LeftToe_End
					{
						OFFSET 4.510741 0.695408 19.974636
						CHANNELS 3 Xrotation Yrotation Zrotation
						End Site
						{
							OFFSET 0.000000 0.000000 0.000000
						}
					}
				}
			}
		}
	}
	JOINT RightUpLeg
	{
		OFFSET -11.333660 -6.187805 -0.413817
		CHANNELS 3 Xrotation Yrotation Zrotation
		JOINT RightLeg
		{
			OFFSET -0.425090 -32.302704 3.733010
			CHANNELS 3 Xrotation Yrotation Zrotation
			JOINT RightFoot
			{
				OFFSET 0.438313 -48.264862 -6.423481
				CHANNELS 3 Xrotation Yrotation Zrotation
				JOINT RightToeBase
				{
					OFFSET -4.230914 -16.068172 23.438402
					CHANNELS 3 Xrotation Yrotation Zrotation
					JOINT RightToe_End
					{
						OFFSET -4.510741 0.695407 19.974638
						CHANNELS 3 Xrotation Yrotation Zrotation
						End Site
						{
							OFFSET 0.000000 0.000000 0.000000
						}
					}
				}
			}
		}
	}
}
MOTION
Frames: 5
Frame Time: 0.016667
0.862693 99.616486 1.106520 4.450079 16.256812 -2.266784 -9.061057 -9.808215 1.187500 4.636101 -1.592018 -0.303831 0.000000 0.000000 0.000000 4.616004 -1.618330 -0.429758 3.210326 -2.116575 2.121247 7.396628 -7.821495 0.693632 0.000001 -0.000001 0.000000 1.305226 -1.808907 2.206976 0.000000 0.000000 0.000000 -18.945015 -38.994694 -54.911733 -0.000914 -106.768329 -0.001154 32.362556 -31.455637 31.463786 -1.539508 3.690496 6.141845 4.701442 17.343204 1.440537 -0.149101 6.260542 2.999066 -0.000000 -0.000002 -0.000000 0.028627 0.628842 -5.215069 0.028629 0.628617 -5.215282 -0.000001 -0.000000 -0.000001 -0.172572 -2.423964 -2.340924 0.212598 3.674083 -5.239537 -0.000000 -0.000000 -0.000000 0.028627 0.628842 -5.215069 0.028629 0.628617 -5.215282 -0.000001 -0.000000 -0.000001 0.380021 4.667904 -4.720792 0.016203 -3.425905 -5.724058 -0.000000 -0.000001 0.000000 -0.063059 -9.130678 7.907635 0.000000 0.000000 0.000000 4.717481 -12.300225 43.922423 -0.000641 114.463910 0.000912 30.420040 -14.630709 29.801427 -1.833220 1.170398 -5.850775 5.609831 -19.613568 -0.957876 -0.771131 -5.336788 -2.676902 -0.000001 -0.000001 0.000002 0.109646 -1.232800 10.166632 0.109666 -1.232582 10.166836 0.000001 0.000000 0.000003 -0.354726 1.789224 7.307574 0.322604 -4.264833 10.182215 0.000003 0.000000 -0.000000 0.109646 -1.232800 10.166632 0.109666 -1.232582 10.166836 0.000001 0.000000 0.000001 0.109646 -1.232800 10.166632 0.109666 -1.232582 10.166832 0.000000 -0.000000 -0.000001 -17.182789 10.247743 -3.961294 29.295931 9.390874 -0.415142 -15.307943 -2.686368 13.272726 -6.792000 -0.000008 -0.000001 -0.000000 0.000001 -0.000001 -15.612166 -8.248842 5.157828 27.435051 -1.109071 -7.928537 -12.571838 -0.010548 0.395958 -7.343349 -0.000002 -0.000000 0.000000 0.000001 0.000000 
1.071751 99.611923 1.203662 5.121126 17.969212 -3.690114 -9.859297 -10.427562 1.107671 5.009728 -1.598642 0.816571 0.000000 0.000000 0.000000 5.012417 -1.653337 0.675420 2.880193 -2.291888 1.783469 7.576900 -8.889892 -0.176367 0.000002 -0.000000 0.000000 1.122198 -1.375026 2.869582 0.000000 0.000000 0.000000 -17.530819 -42.449195 -52.872488 -0.001031 -106.695519 -0.001257 30.202256 -32.665708 30.468538 -1.539435 3.693984 6.141386 4.701445 17.343204 1.440540 -0.149102 6.260544 2.999061 -0.000000 0.000000 0.000002 0.029573 0.639100 -5.300438 0.029615 0.639323 -5.304354 -0.000000 0.000000 0.000002 -0.176176 -2.413401 -2.426319 0.214112 3.684608 -5.328730 0.000000 -0.000000 -0.000000 0.029573 0.639100 -5.300438 0.029615 0.639323 -5.304354 -0.000000 0.000000 0.000002 0.387006 4.677638 -4.806506 0.017287 -3.415207 -5.813054 -0.000000 -0.000001 -0.000002 -0.110411 -10.118205 8.367073 0.000000 0.000000 0.000000 3.772876 -15.337822 42.676323 -0.000726 113.374652 0.000980 29.516092 -16.118872 27.283076 -1.831382 0.032666 -6.026541 5.669406 -20.320048 -0.999753 -0.740555 -5.689070 -2.712841 -0.000000 -0.000002 0.000001 0.109645 -1.232804 10.166631 0.109665 -1.232583 10.166837 -0.000001 0.000003 -0.000002 -0.354725 1.789224 7.307572 0.322600 -4.264831 10.182213 0.000001 -0.000001 -0.000001 0.109645 -1.232804 10.166631 0.109665 -1.232583 10.166837 -0.000001 0.000003 -0.000003 0.109645 -1.232804 10.166631 0.109664 -1.232584 10.166837 0.000003 -0.000001 -0.000001 -20.593767 10.110710 -2.778124 32.673310 7.196228 0.886816 -13.645724 -1.995032 10.653378 -9.758563 -0.000013 -0.000003 -0.000000 -0.000001 -0.000000 -13.899575 -7.992043 5.189734 24.526980 -1.780634 -5.946012 -12.662039 -0.079328 0.672105 -5.986896 -0.000003 -0.000001 -0.000000 0.000000 0.000000 
1.251924 99.573883 1.297877 5.838190 19.266338 -5.133290 -10.521086 -10.716358 1.262932 5.259092 -1.547640 1.776884 0.000000 0.000000 0.000000 5.282379 -1.631457 1.628381 2.552511 -2.484928 1.482319 7.859773 -10.020498 -1.000447 -0.000000 0.000000 0.000000 1.186082 -1.425574 3.558435 0.000000 0.000000 0.000000 -15.856873 -45.512071 -50.095934 -0.001014 -106.733092 -0.001257 30.965339 -32.252713 31.432134 -1.539466 3.696194 6.142064 4.701446 17.343203 1.440540 -0.149103 6.260546 2.999061 0.000001 0.000001 0.000001 0.030045 0.644185 -5.342762 0.030098 0.644495 -5.347394 0.000000 -0.000000 -0.000002 -0.177959 -2.408163 -2.468662 0.214848 3.689693 -5.371806 -0.000000 0.000000 -0.000001 0.030045 0.644185 -5.342762 0.030098 0.644495 -5.347394 0.000000 -0.000000 -0.000002 0.390470 4.682456 -4.848988 0.017816 -3.410042 -5.856055 -0.000000 0.000000 0.000001 -0.134168 -11.010193 8.907901 0.000000 0.000000 0.000000 2.617237 -18.183232 41.557699 -0.000740 112.018477 0.000987 28.296330 -17.940120 24.092475 -1.836080 -1.865024 -6.319773 5.860905 -22.613049 -1.131640 -0.642714 -6.832397 -2.828303 -0.000000 0.000001 0.000000 0.109647 -1.232798 10.166632 0.109665 -1.232580 10.166838 -0.000004 -0.000001 0.000002 -0.354726 1.789226 7.307571 0.322599 -4.264829 10.182215 -0.000003 0.000002 -0.000003 0.109647 -1.232798 10.166632 0.109665 -1.232580 10.166838 -0.000004 -0.000001 0.000002 0.109647 -1.232798 10.166632 0.109665 -1.232580 10.166839 -0.000002 -0.000003 -0.000000 -25.331621 9.208920 -0.798560 37.385372 4.369566 1.665176 -9.750489 -0.809994 5.500409 -15.768316 0.000000 0.000002 0.000000 -0.000001 -0.000000 -12.646041 -7.913181 5.191979 22.191401 -2.607301 -3.838315 -12.719424 -0.057917 0.392804 -4.951785 0.000000 -0.000001 -0.000000 -0.000001 -0.000000 
1.390421 99.435318 1.398055 6.534127 20.095859 -6.590274 -10.972756 -10.684757 1.854994 5.330512 -1.459975 2.381428 0.000000 0.000000 0.000000 5.365314 -1.564760 2.234580 2.340007 -2.696116 1.292711 8.182998 -11.133919 -1.482075 0.000001 -0.000000 0.000000 1.308543 -1.578317 4.233565 0.000000 0.000000 0.000000 -13.762277 -48.335872 -46.768805 -0.000952 -106.845715 -0.001196 32.870009 -31.123065 33.232979 -1.539525 3.697652 6.142976 4.701445 17.343206 1.440541 -0.149103 6.260545 2.999066 0.000000 0.000001 0.000001 0.030263 0.646522 -5.362198 0.030312 0.646787 -5.366460 -0.000000 0.000000 0.000002 -0.178775 -2.405756 -2.488091 0.215175 3.691946 -5.390896 0.000000 -0.000000 0.000001 0.030263 0.646522 -5.362198 0.030312 0.646787 -5.366460 -0.000000 0.000000 0.000002 0.392063 4.684672 -4.868503 0.018052 -3.407752 -5.875106 0.000000 0.000000 0.000002 -0.170224 -11.858350 9.602291 0.000000 0.000000 0.000000 1.235712 -20.681837 40.533058 -0.000854 110.325744 0.001100 27.129110 -19.186701 21.207987 -1.854434 -4.129732 -6.670626 6.116982 -25.724845 -1.300818 -0.513274 -8.383994 -2.982330 -0.000000 -0.000001 0.000001 0.109645 -1.232800 10.166633 0.109662 -1.232581 10.166837 -0.000000 -0.000002 0.000003 -0.354732 1.789223 7.307574 0.322599 -4.264831 10.182215 -0.000001 0.000002 -0.000000 0.109645 -1.232800 10.166633 0.109662 -1.232581 10.166837 -0.000000 -0.000002 0.000003 0.109645 -1.232800 10.166633 0.109662 -1.232581 10.166838 -0.000001 -0.000001 0.000003 -29.290132 8.475167 0.499702 41.470262 0.647134 2.141005 -7.452528 -0.506352 5.094374 -19.985842 -0.000011 -0.000006 -0.000001 0.000001 0.000000 -11.793758 -8.218491 5.292901 20.562237 -3.426721 -1.786565 -12.972714 0.055086 -0.408636 -4.052841 0.000011 -0.000001 -0.000000 0.000001 -0.000000 
1.507842 99.105164 1.494858 7.112946 20.411814 -8.023960 -11.207160 -10.337506 2.820005 5.256925 -1.349456 2.653540 0.000000 0.000000 0.000000 5.294055 -1.455279 2.516156 2.253749 -2.909105 1.138121 8.497762 -12.124541 -1.432159 -0.000000 -0.000000 0.000000 1.445382 -1.746809 4.834059 0.000000 0.000000 0.000000 -11.184331 -50.883741 -42.846562 -0.000992 -107.061255 -0.001245 35.644800 -29.304759 35.629217 -1.539603 3.697466 6.143949 4.701445 17.343204 1.440543 -0.149100 6.260542 2.999063 0.000001 -0.000002 0.000000 0.030026 0.643998 -5.341184 0.030056 0.644035 -5.343585 -0.000000 0.000000 0.000001 -0.177894 -2.408356 -2.467101 0.214781 3.689241 -5.367981 -0.000000 -0.000000 -0.000002 0.030026 0.643998 -5.341184 0.030056 0.644035 -5.343585 -0.000000 0.000000 0.000001 0.390342 4.682279 -4.847421 0.017769 -3.410499 -5.852234 0.000000 0.000000 0.000001 -0.274816 -12.458069 9.862529 0.000000 0.000000 0.000000 -0.428162 -22.798651 39.519106 -0.000829 108.401085 0.001043 26.134271 -20.062665 18.925110 -1.892526 -6.714160 -7.073554 6.433954 -29.630990 -1.497513 -0.356000 -10.331699 -3.171553 0.000000 0.000001 -0.000002 0.109645 -1.232801 10.166632 0.109664 -1.232581 10.166835 -0.000001 0.000001 -0.000001 -0.354727 1.789226 7.307572 0.322601 -4.264829 10.182216 -0.000001 0.000003 -0.000001 0.109645 -1.232801 10.166632 0.109664 -1.232581 10.166835 -0.000001 0.000001 -0.000003 0.109645 -1.232801 10.166632 0.109664 -1.232581 10.166833 -0.000005 0.000000 0.000000 -32.667828 8.039040 1.873535 45.352439 -2.826190 2.634943 -6.547354 -1.083979 5.952069 -23.523802 -0.000005 0.000002 -0.000000 0.000001 0.000000 -11.304153 -9.047744 5.543051 19.792073 -3.834300 0.018321 -13.598775 0.225877 -1.473549 -3.130355 0.000003 -0.000001 0.000000 -0.000000 0.000000 
